<svg xmlns="http://www.w3.org/2000/svg" fill="none" viewBox="0 0 30 30">
  <path d="M14.616 12.189a1.608 1.608 0 0 1-1.406-.812L9.24 4.5h10.753l-3.97 6.877a1.61 1.61 0 0 1-1.407.812Zm3.675 2.121a1.608 1.608 0 0 1-1.406-.81 1.607 1.607 0 0 1 0-1.625l3.97-6.876 5.377 9.313h-7.94ZM9.24 25.117l3.97-6.876c.293-.509.819-.812 1.406-.812s1.113.303 1.407.812l3.97 6.876H9.239Zm7.645-7.374a1.607 1.607 0 0 1 0-1.624c.293-.509.82-.812 1.406-.812h7.94l-5.376 9.312-3.97-6.876ZM3 14.31l5.377-9.311 3.97 6.876a1.607 1.607 0 0 1 0 1.625 1.607 1.607 0 0 1-1.406.812H3Zm0 .997h7.941c.587 0 1.113.303 1.407.812a1.607 1.607 0 0 1 0 1.624l-3.97 6.876L3 15.307Z" fill="#EA5729"/>
</svg>
