<svg viewBox="0 0 112 100" fill="none" xmlns="http://www.w3.org/2000/svg">
  <path d="m25.5 12.92 15.22 26.36c.47.81.2 1.52 0 1.87-.2.35-.68.94-1.62.94H8.66L25.5 12.92Zm0-10L0 47.08h39.09c5.29 0 8.6-5.73 5.95-10.31L25.5 2.92Zm86.6 50L86.6 97.09 67.05 63.23c-2.65-4.58.66-10.31 5.95-10.31h39.1Zm-62-19.06L30.55 0h51L62 33.86c-2.65 4.58-9.26 4.58-11.91 0h.01ZM62 66.14 81.55 100h-51L50.1 66.14c2.65-4.58 9.26-4.58 11.91 0H62Zm5.06-29.37L86.6 2.92l25.5 44.17H73.01c-5.29 0-8.6-5.73-5.95-10.31v-.01ZM45.05 63.23 25.5 97.09 0 52.92h39.09c5.29 0 8.6 5.73 5.95 10.31h.01Z" fill="#F7732D"/>
</svg>
