<svg viewBox="0 0 24 21" fill="none" xmlns="http://www.w3.org/2000/svg">
  <g fill="var(--fill-0, #121212)">
    <path d="M11.616 7.689a1.608 1.608 0 0 1-1.406-.812L6.24 0h10.753l-3.97 6.877c-.294.508-.82.812-1.407.812ZM15.291 9.81A1.608 1.608 0 0 1 13.885 9a1.607 1.607 0 0 1 0-1.625l3.97-6.876 5.377 9.313h-7.94ZM6.24 20.617l3.97-6.876c.293-.509.819-.812 1.406-.812s1.113.303 1.407.812l3.97 6.876H6.239ZM13.885 13.243a1.607 1.607 0 0 1 0-1.624c.293-.509.82-.812 1.406-.812h7.94l-5.376 9.312-3.97-6.876ZM0 9.81 5.377.499l3.97 6.876a1.607 1.607 0 0 1 0 1.625c-.293.508-.819.812-1.406.812H0ZM0 10.807h7.941c.587 0 1.113.303 1.407.812a1.607 1.607 0 0 1 0 1.624l-3.97 6.876L0 10.807Z"/>
  </g>
</svg>
