<svg viewBox="0 0 140 21" fill="none" xmlns="http://www.w3.org/2000/svg">
  <g fill="var(--fill-0, #121212)">
    <path d="M11.616 7.689a1.608 1.608 0 0 1-1.406-.812L6.24 0h10.753l-3.97 6.877c-.294.508-.82.812-1.407.812ZM15.291 9.81A1.608 1.608 0 0 1 13.885 9a1.607 1.607 0 0 1 0-1.625l3.97-6.876 5.377 9.313h-7.94ZM6.24 20.617l3.97-6.876c.293-.509.819-.812 1.406-.812s1.113.303 1.407.812l3.97 6.876H6.239ZM13.885 13.243a1.607 1.607 0 0 1 0-1.624c.293-.509.82-.812 1.406-.812h7.94l-5.376 9.312-3.97-6.876ZM0 9.81 5.377.499l3.97 6.876a1.607 1.607 0 0 1 0 1.625c-.293.508-.819.812-1.406.812H0ZM0 10.807h7.941c.587 0 1.113.303 1.407.812a1.607 1.607 0 0 1 0 1.624l-3.97 6.876L0 10.807ZM28.426 10.565c0-1.442.332-2.735.997-3.88a7.192 7.192 0 0 1 2.735-2.672 7.628 7.628 0 0 1 3.796-.976c1.57 0 2.962.389 4.178 1.167 1.23.763 2.12 1.852 2.672 3.265h-2.905c-.382-.777-.912-1.357-1.59-1.739-.68-.381-1.464-.572-2.355-.572-.975 0-1.845.219-2.608.657-.763.438-1.364 1.068-1.803 1.888-.424.82-.636 1.774-.636 2.862 0 1.089.212 2.043.636 2.863a4.791 4.791 0 0 0 1.803 1.909c.763.438 1.633.657 2.608.657.89 0 1.676-.19 2.354-.572.679-.382 1.209-.962 1.59-1.74h2.906c-.552 1.414-1.442 2.503-2.672 3.266-1.216.764-2.608 1.146-4.178 1.146-1.385 0-2.65-.319-3.796-.955a7.351 7.351 0 0 1-2.735-2.693c-.665-1.145-.997-2.439-.997-3.88ZM46.44 4.734c-.439 0-.806-.149-1.103-.446a1.498 1.498 0 0 1-.446-1.102c0-.439.149-.806.446-1.103a1.498 1.498 0 0 1 1.102-.445c.425 0 .785.148 1.082.445.297.297.445.664.445 1.103 0 .438-.148.805-.445 1.102a1.472 1.472 0 0 1-1.082.446Zm1.187 1.548v11.684h-2.418V6.282h2.418ZM53.197 8.254v6.468c0 .438.1.756.297.954.212.184.566.276 1.06.276h1.485v2.014H54.13c-1.088 0-1.922-.254-2.502-.763-.58-.509-.87-1.336-.87-2.481V8.254H49.38V6.282h1.378V3.377h2.44v2.905h2.84v1.972h-2.84ZM60.26 7.978a3.739 3.739 0 0 1 1.4-1.378c.594-.34 1.294-.51 2.1-.51v2.503h-.616c-.947 0-1.668.24-2.163.721-.48.48-.72 1.315-.72 2.503v6.15h-2.418V6.281h2.417v1.696ZM76.266 11.838c0 .438-.028.834-.084 1.187h-8.928c.07.933.417 1.683 1.039 2.248.622.566 1.385.848 2.29.848 1.3 0 2.22-.544 2.757-1.632h2.608c-.353 1.074-.996 1.958-1.93 2.65-.918.679-2.063 1.018-3.435 1.018-1.117 0-2.12-.247-3.011-.742a5.547 5.547 0 0 1-2.078-2.12c-.495-.92-.742-1.98-.742-3.182 0-1.201.24-2.254.72-3.16a5.217 5.217 0 0 1 2.058-2.12c.89-.495 1.908-.742 3.053-.742 1.103 0 2.086.24 2.948.72a5.076 5.076 0 0 1 2.014 2.037c.481.862.721 1.859.721 2.99Zm-2.523-.764c-.014-.89-.332-1.604-.954-2.141-.622-.538-1.393-.806-2.312-.806-.834 0-1.548.268-2.142.806-.593.523-.947 1.236-1.06 2.141h6.468ZM77.416 12.071c0-1.173.24-2.212.72-3.117.496-.905 1.16-1.605 1.994-2.1a5.339 5.339 0 0 1 2.8-.763c.918 0 1.717.184 2.395.551.693.354 1.245.799 1.655 1.336V6.282h2.438v11.684H86.98v-1.739c-.41.552-.969 1.011-1.676 1.379-.707.367-1.512.551-2.417.551a5.192 5.192 0 0 1-2.757-.763c-.834-.523-1.498-1.244-1.993-2.163-.481-.933-.721-1.987-.721-3.16Zm9.564.042c0-.805-.17-1.505-.51-2.099-.325-.594-.756-1.046-1.293-1.357a3.412 3.412 0 0 0-1.739-.467c-.622 0-1.201.156-1.739.467-.537.297-.975.742-1.314 1.336-.326.58-.488 1.272-.488 2.078 0 .806.162 1.513.487 2.12.34.609.778 1.075 1.315 1.4a3.488 3.488 0 0 0 1.74.467c.621 0 1.2-.156 1.738-.467.537-.31.968-.763 1.294-1.357.339-.608.509-1.315.509-2.12ZM96.41 18.157c-.918 0-1.745-.162-2.48-.488-.721-.339-1.294-.791-1.718-1.357a3.434 3.434 0 0 1-.679-1.93h2.503c.042.495.275.912.7 1.252.438.325.982.487 1.632.487.679 0 1.202-.127 1.57-.381.381-.269.572-.608.572-1.018 0-.438-.212-.764-.636-.976-.41-.212-1.067-.445-1.972-.7-.877-.24-1.59-.473-2.142-.7a3.845 3.845 0 0 1-1.442-1.038c-.396-.467-.594-1.082-.594-1.845 0-.622.184-1.188.551-1.697.368-.523.891-.933 1.57-1.23.692-.297 1.484-.445 2.375-.445 1.329 0 2.396.34 3.202 1.018.82.664 1.258 1.576 1.315 2.735h-2.418c-.042-.523-.254-.94-.636-1.25-.382-.312-.898-.467-1.548-.467-.636 0-1.124.12-1.463.36-.34.24-.51.559-.51.954 0 .311.114.573.34.785.226.212.502.382.827.509.325.113.806.262 1.442.445.849.227 1.541.46 2.078.7a3.759 3.759 0 0 1 1.421 1.018c.396.453.601 1.053.615 1.803 0 .664-.184 1.258-.551 1.78-.368.524-.89.934-1.57 1.23-.664.298-1.448.446-2.353.446ZM102.267 12.113c0-1.201.241-2.254.721-3.16.495-.918 1.174-1.625 2.036-2.12.863-.495 1.852-.742 2.969-.742 1.414 0 2.58.34 3.499 1.018.933.664 1.562 1.619 1.887 2.863h-2.608c-.212-.58-.551-1.032-1.018-1.358-.466-.325-1.053-.487-1.76-.487-.99 0-1.781.353-2.375 1.06-.58.693-.869 1.668-.869 2.926 0 1.259.289 2.241.869 2.948.594.707 1.385 1.06 2.375 1.06 1.4 0 2.326-.615 2.778-1.844h2.608c-.339 1.187-.975 2.134-1.908 2.841-.933.693-2.092 1.04-3.478 1.04-1.117 0-2.106-.248-2.969-.743a5.447 5.447 0 0 1-2.036-2.12c-.48-.92-.721-1.98-.721-3.182ZM114.559 12.071c0-1.173.24-2.212.721-3.117.495-.905 1.159-1.605 1.993-2.1a5.337 5.337 0 0 1 2.799-.763c.919 0 1.718.184 2.397.551.692.354 1.244.799 1.654 1.336V6.282h2.438v11.684h-2.438v-1.739c-.41.552-.969 1.011-1.676 1.379-.706.367-1.512.551-2.417.551a5.191 5.191 0 0 1-2.757-.763c-.834-.523-1.498-1.244-1.993-2.163-.481-.933-.721-1.987-.721-3.16Zm9.564.042c0-.805-.17-1.505-.509-2.099-.325-.594-.757-1.046-1.294-1.357a3.412 3.412 0 0 0-1.739-.467c-.622 0-1.201.156-1.739.467-.537.297-.975.742-1.314 1.336-.326.58-.488 1.272-.488 2.078 0 .806.162 1.513.488 2.12.339.609.777 1.075 1.314 1.4a3.49 3.49 0 0 0 1.739.467c.622 0 1.202-.156 1.739-.467.537-.31.969-.763 1.294-1.357.339-.608.509-1.315.509-2.12ZM135.208 6.09c.919 0 1.739.192 2.46.573a4.058 4.058 0 0 1 1.718 1.697c.409.75.614 1.654.614 2.714v6.892h-2.396v-6.531c0-1.046-.261-1.845-.784-2.396-.524-.566-1.237-.849-2.142-.849-.905 0-1.626.283-2.163.849-.523.55-.785 1.35-.785 2.396v6.531h-2.417V6.282h2.417v1.336c.396-.48.898-.856 1.506-1.124a4.92 4.92 0 0 1 1.972-.403Z"/>
  </g>
</svg>
