<svg viewBox="0 0 654 100" fill="none" xmlns="http://www.w3.org/2000/svg">
  <path d="M141.609 33.8c3.17-5.4 7.46-9.62 12.9-12.65 5.43-3.03 11.38-4.55 17.85-4.55 7.4 0 13.98 1.82 19.75 5.45s9.95 8.78 12.55 15.45h-13.7c-1.8-3.67-4.3-6.4-7.5-8.2-3.2-1.8-6.9-2.7-11.1-2.7-4.6 0-8.7 1.04-12.3 3.1-3.6 2.07-6.42 5.03-8.45 8.9-2.04 3.87-3.05 8.37-3.05 13.5 0 5.13 1.02 9.63 3.05 13.5 2.03 3.87 4.85 6.85 8.45 8.95 3.6 2.1 7.7 3.15 12.3 3.15 4.2 0 7.9-.9 11.1-2.7 3.2-1.8 5.7-4.53 7.5-8.2h13.7c-2.6 6.67-6.78 11.8-12.55 15.4-5.77 3.6-12.35 5.4-19.75 5.4-6.54 0-12.5-1.52-17.9-4.55-5.4-3.03-9.68-7.25-12.85-12.65s-4.75-11.5-4.75-18.3c0-6.8 1.58-12.9 4.75-18.3Zm71.75-11.3c-1.4-1.4-2.1-3.13-2.1-5.2 0-2.07.7-3.8 2.1-5.2 1.4-1.4 3.13-2.1 5.2-2.1 2.07 0 3.7.7 5.1 2.1 1.4 1.4 2.1 3.13 2.1 5.2 0 2.07-.7 3.8-2.1 5.2-1.4 1.4-3.1 2.1-5.1 2.1-2 0-3.8-.7-5.2-2.1Zm10.8 9.4V87h-11.4V31.9h11.4Zm26.45 9.3v30.5c0 2.07.48 3.55 1.45 4.45.96.9 2.62 1.35 4.95 1.35h7V87h-9c-5.13 0-9.07-1.2-11.8-3.6-2.73-2.4-4.1-6.3-4.1-11.7V41.2h-6.5v-9.3h6.5V18.2h11.5v13.7h13.4v9.3h-13.4Zm40.35-7.85c2.77-1.57 6.05-2.35 9.85-2.35v11.8h-2.9c-4.47 0-7.85 1.13-10.15 3.4-2.3 2.27-3.45 6.2-3.45 11.8v29h-11.4V31.9h11.4v8c1.67-2.8 3.88-4.98 6.65-6.55Zm67.05 30.35h-42.1c.33 4.4 1.97 7.93 4.9 10.6 2.93 2.67 6.53 4 10.8 4 6.13 0 10.47-2.57 13-7.7h12.3c-1.67 5.07-4.68 9.22-9.05 12.45-4.37 3.23-9.78 4.85-16.25 4.85-5.27 0-9.98-1.18-14.15-3.55s-7.43-5.7-9.8-10c-2.37-4.3-3.55-9.28-3.55-14.95s1.15-10.65 3.45-14.95c2.3-4.3 5.53-7.62 9.7-9.95 4.17-2.33 8.95-3.5 14.35-3.5s9.83 1.13 13.9 3.4 7.23 5.45 9.5 9.55c2.27 4.1 3.4 8.82 3.4 14.15 0 2.07-.13 3.93-.4 5.6Zm-11.5-9.2c-.07-4.2-1.57-7.57-4.5-10.1-2.93-2.53-6.57-3.8-10.9-3.8-3.93 0-7.3 1.25-10.1 3.75s-4.47 5.88-5 10.15h30.5Zm20.94-10c2.3-4.27 5.43-7.58 9.4-9.95 3.97-2.37 8.35-3.55 13.15-3.55 4.33 0 8.12.85 11.35 2.55 3.23 1.7 5.82 3.82 7.75 6.35v-8h11.5V87h-11.5v-8.2c-1.93 2.6-4.57 4.77-7.9 6.5-3.33 1.73-7.13 2.6-11.4 2.6-4.73 0-9.07-1.22-13-3.65-3.93-2.43-7.05-5.83-9.35-10.2-2.3-4.37-3.45-9.32-3.45-14.85 0-5.53 1.15-10.43 3.45-14.7Zm39.3 5c-1.57-2.8-3.62-4.93-6.15-6.4-2.53-1.46-5.27-2.2-8.2-2.2-2.93 0-5.67.72-8.2 2.15-2.54 1.43-4.58 3.53-6.15 6.3-1.57 2.77-2.35 6.05-2.35 9.85s.78 7.13 2.35 10 3.63 5.05 6.2 6.55c2.57 1.5 5.28 2.25 8.15 2.25s5.67-.73 8.2-2.2c2.53-1.47 4.58-3.62 6.15-6.45 1.57-2.83 2.35-6.15 2.35-9.95 0-3.8-.78-7.1-2.35-9.9Zm34.5 36.05c-3.43-1.57-6.15-3.7-8.15-6.4s-3.07-5.72-3.2-9.05h11.8c.2 2.33 1.32 4.29 3.35 5.85 2.03 1.57 4.58 2.35 7.65 2.35 3.07 0 5.68-.62 7.45-1.85 1.77-1.23 2.65-2.82 2.65-4.75 0-2.07-.98-3.6-2.95-4.6-1.97-1-5.08-2.1-9.35-3.3-4.13-1.13-7.5-2.23-10.1-3.3-2.6-1.07-4.85-2.7-6.75-4.9-1.9-2.2-2.85-5.1-2.85-8.7 0-2.93.87-5.62 2.6-8.05 1.73-2.43 4.22-4.35 7.45-5.75 3.23-1.4 6.95-2.1 11.15-2.1 6.27 0 11.32 1.58 15.15 4.75s5.88 7.48 6.15 12.95h-11.4c-.2-2.47-1.2-4.43-3-5.9-1.8-1.47-4.23-2.2-7.3-2.2-3.07 0-5.3.57-6.9 1.7-1.6 1.13-2.4 2.63-2.4 4.5 0 1.47.53 2.7 1.6 3.7s2.37 1.78 3.9 2.35c1.53.57 3.8 1.29 6.8 2.15 4 1.07 7.28 2.15 9.85 3.25 2.57 1.1 4.78 2.72 6.65 4.85 1.87 2.13 2.83 4.97 2.9 8.5 0 3.13-.87 5.93-2.6 8.4-1.73 2.47-4.18 4.4-7.35 5.8-3.17 1.4-6.88 2.1-11.15 2.1-4.27 0-8.22-.79-11.65-2.35Zm40.7-41.1c2.3-4.3 5.48-7.62 9.55-9.95 4.07-2.33 8.73-3.5 14-3.5 6.67 0 12.18 1.58 16.55 4.75 4.37 3.17 7.32 7.68 8.85 13.55h-12.3c-1-2.73-2.6-4.87-4.8-6.4-2.2-1.53-4.97-2.3-8.3-2.3-4.67 0-8.38 1.65-11.15 4.95-2.77 3.3-4.15 7.92-4.15 13.85s1.38 10.57 4.15 13.9c2.77 3.33 6.48 5 11.15 5 6.6 0 10.96-2.9 13.1-8.7h12.3c-1.6 5.6-4.6 10.05-9 13.35-4.4 3.3-9.87 4.95-16.4 4.95-5.27 0-9.93-1.18-14-3.55s-7.25-5.7-9.55-10c-2.3-4.3-3.45-9.28-3.45-14.95s1.15-10.65 3.45-14.95Zm56.9.05c2.3-4.27 5.43-7.58 9.4-9.95 3.97-2.37 8.35-3.55 13.15-3.55 4.33 0 8.12.85 11.35 2.55 3.23 1.7 5.82 3.82 7.75 6.35v-8h11.5V87h-11.5v-8.2c-1.93 2.6-4.57 4.77-7.9 6.5-3.33 1.73-7.13 2.6-11.4 2.6-4.73 0-9.07-1.22-13-3.65-3.94-2.43-7.05-5.83-9.35-10.2-2.3-4.37-3.45-9.32-3.45-14.85 0-5.53 1.15-10.43 3.45-14.7Zm39.3 5c-1.57-2.8-3.62-4.93-6.15-6.4-2.53-1.46-5.27-2.2-8.2-2.2-2.93 0-5.67.72-8.2 2.15-2.53 1.43-4.58 3.53-6.15 6.3-1.57 2.77-2.35 6.05-2.35 9.85s.78 7.13 2.35 10c1.56 2.87 3.63 5.05 6.2 6.55 2.57 1.5 5.28 2.25 8.15 2.25s5.67-.73 8.2-2.2c2.53-1.47 4.58-3.62 6.15-6.45 1.57-2.83 2.35-6.15 2.35-9.95 0-3.8-.78-7.1-2.35-9.9Zm64.3-15.8c3.43 1.8 6.12 4.47 8.05 8 1.93 3.53 2.9 7.8 2.9 12.8V87h-11.3V56.2c0-4.93-1.23-8.72-3.7-11.35-2.47-2.63-5.83-3.95-10.1-3.95s-7.65 1.32-10.15 3.95-3.75 6.42-3.75 11.35V87h-11.4V31.9h11.4v6.3c1.87-2.27 4.25-4.03 7.15-5.3 2.9-1.27 5.98-1.9 9.25-1.9 4.33 0 8.22.9 11.65 2.7ZM25.5 12.92l15.22 26.36c.47.81.2 1.52 0 1.87-.2.35-.68.94-1.62.94H8.66L25.5 12.92Zm0-10L0 47.08h39.09c5.29 0 8.6-5.73 5.95-10.31L25.5 2.92Zm86.6 50L86.6 97.09 67.05 63.23c-2.65-4.58.66-10.31 5.95-10.31h39.1Zm-62-19.06L30.55 0h51L62 33.86c-2.65 4.58-9.26 4.58-11.91 0h.01ZM62 66.14 81.55 100h-51L50.1 66.14c2.65-4.58 9.26-4.58 11.91 0H62Zm5.06-29.37L86.6 2.92l25.5 44.17H73.01c-5.29 0-8.6-5.73-5.95-10.31v-.01ZM45.05 63.23 25.5 97.09 0 52.92h39.09c5.29 0 8.6 5.73 5.95 10.31h.01Z" fill="#fff"/>
</svg>
